<?xml version="1.0" encoding="utf-8"?>
<!-- Generator: Adobe Illustrator 26.0.0, SVG Export Plug-In . SVG Version: 6.00 Build 0)  -->
<svg version="1.1" id="Capa_1" xmlns="http://www.w3.org/2000/svg" xmlns:xlink="http://www.w3.org/1999/xlink" x="0px" y="0px"
	 viewBox="0 0 23 23" style="enable-background:new 0 0 23 23;" xml:space="preserve">
<style type="text/css">
	.st0{clip-path:url(#SVGID_00000132794937546578125980000005094845664915816109_);}
	.st1{clip-path:url(#SVGID_00000033343850890660616070000007611742238335362712_);}
	
		.st2{clip-path:url(#SVGID_00000017514063131070494560000012060755323736191902_);fill:none;stroke:#000000;stroke-linecap:round;stroke-miterlimit:10;}
	
		.st3{clip-path:url(#SVGID_00000017514063131070494560000012060755323736191902_);fill:none;stroke:#000000;stroke-width:0.75;stroke-miterlimit:10;}
	.st4{clip-path:url(#SVGID_00000017514063131070494560000012060755323736191902_);fill:none;stroke:#000000;stroke-miterlimit:10;}
	
		.st5{clip-path:url(#SVGID_00000017514063131070494560000012060755323736191902_);fill:none;stroke:#000000;stroke-width:0.7353;stroke-miterlimit:10;}
	.st6{clip-path:url(#SVGID_00000017514063131070494560000012060755323736191902_);}
	
		.st7{clip-path:url(#SVGID_00000017514063131070494560000012060755323736191902_);fill:none;stroke:#000000;stroke-width:0.1838;stroke-miterlimit:10;}
</style>
<g>
	<g>
		<defs>
			<polygon id="SVGID_1_" points="0,23.5 23,23.5 23,0 0,0 0,23.5 			"/>
		</defs>
		<defs>
			<polygon id="SVGID_00000173138640351682280380000012096078770948983742_" points="0,0 23,0 23,23.5 0,23.5 0,0 			"/>
		</defs>
		<clipPath id="SVGID_00000141414262793555294160000002859200201752804002_">
			<use xlink:href="#SVGID_1_"  style="overflow:visible;"/>
		</clipPath>
		
			<clipPath id="SVGID_00000142877332425512268070000017363261037655409599_" style="clip-path:url(#SVGID_00000141414262793555294160000002859200201752804002_);">
			<use xlink:href="#SVGID_00000173138640351682280380000012096078770948983742_"  style="overflow:visible;"/>
		</clipPath>
		<g style="clip-path:url(#SVGID_00000142877332425512268070000017363261037655409599_);">
			<defs>
				<polygon id="SVGID_00000165204031124972445730000011527051289629803154_" points="0,23.5 23,23.5 23,0 0,0 0,23.5 				"/>
			</defs>
			<clipPath id="SVGID_00000044164039369107680340000016793599709525216444_">
				<use xlink:href="#SVGID_00000165204031124972445730000011527051289629803154_"  style="overflow:visible;"/>
			</clipPath>
			
				<path style="clip-path:url(#SVGID_00000044164039369107680340000016793599709525216444_);fill:none;stroke:#000000;stroke-linecap:round;stroke-miterlimit:10;" d="
				M16.7,11.7c1.1,2.8,0,5.9,0,8.9"/>
			
				<path style="clip-path:url(#SVGID_00000044164039369107680340000016793599709525216444_);fill:none;stroke:#000000;stroke-width:0.75;stroke-miterlimit:10;" d="
				M17.3,11.7c-1.5,1.2-5.4-0.7-7.3-3.6c-1.2-2-2-5.2-0.7-6.3c1.4-1.2,4.7,0.3,6.5,2.4C17.8,6.6,18.6,10.6,17.3,11.7L17.3,11.7z"/>
			
				<path style="clip-path:url(#SVGID_00000044164039369107680340000016793599709525216444_);fill:none;stroke:#000000;stroke-miterlimit:10;" d="
				M16.7,11.8c-0.4-1.4-1.9-3.5-3.4-5.7c-1.4-2-3-3.3-4.1-4.2"/>
			
				<path style="clip-path:url(#SVGID_00000044164039369107680340000016793599709525216444_);fill:none;stroke:#000000;stroke-width:0.7353;stroke-miterlimit:10;" d="
				M14.6,15.3c0,2.9-2.3,5.3-5.2,5.3c-2.9,0-5.2-2.4-5.2-5.3c0-2.9,2.3-5.3,5.2-5.3S14.6,12.3,14.6,15.3L14.6,15.3z"/>
			<path style="clip-path:url(#SVGID_00000044164039369107680340000016793599709525216444_);" d="M7.9,16.5
				c-0.1,0.1-0.5,0.1-0.8,0.1c-0.9,0-1.6-0.6-1.6-1.6c0-1,0.7-1.6,1.7-1.6c0.4,0,0.6,0.1,0.8,0.1l-0.1,0.3c-0.2-0.1-0.4-0.1-0.6-0.1
				c-0.7,0-1.2,0.5-1.2,1.3c0,0.8,0.4,1.2,1.2,1.2c0.3,0,0.5-0.1,0.7-0.1L7.9,16.5L7.9,16.5L7.9,16.5z"/>
			
				<path style="clip-path:url(#SVGID_00000044164039369107680340000016793599709525216444_);fill:none;stroke:#000000;stroke-width:0.1838;stroke-miterlimit:10;" d="
				M7.9,16.5c-0.1,0.1-0.5,0.1-0.8,0.1c-0.9,0-1.6-0.6-1.6-1.6c0-1,0.7-1.6,1.7-1.6c0.4,0,0.6,0.1,0.8,0.1l-0.1,0.3
				c-0.2-0.1-0.4-0.1-0.6-0.1c-0.7,0-1.2,0.5-1.2,1.3c0,0.8,0.4,1.2,1.2,1.2c0.3,0,0.5-0.1,0.7-0.1L7.9,16.5L7.9,16.5L7.9,16.5z"/>
			<path style="clip-path:url(#SVGID_00000044164039369107680340000016793599709525216444_);" d="M11.1,15c0,1.1-0.7,1.6-1.5,1.6
				c-0.8,0-1.4-0.6-1.4-1.6c0-1,0.6-1.6,1.5-1.6C10.5,13.5,11.1,14.1,11.1,15L11.1,15z M8.6,15.1c0,0.7,0.4,1.3,1,1.3
				c0.6,0,1-0.6,1-1.3c0-0.6-0.3-1.3-1-1.3C8.9,13.8,8.6,14.4,8.6,15.1L8.6,15.1z"/>
			
				<path style="clip-path:url(#SVGID_00000044164039369107680340000016793599709525216444_);fill:none;stroke:#000000;stroke-width:0.1838;stroke-miterlimit:10;" d="
				M11.1,15c0,1.1-0.7,1.6-1.5,1.6c-0.8,0-1.4-0.6-1.4-1.6c0-1,0.6-1.6,1.5-1.6C10.5,13.5,11.1,14.1,11.1,15L11.1,15z M8.6,15.1
				c0,0.7,0.4,1.3,1,1.3c0.6,0,1-0.6,1-1.3c0-0.6-0.3-1.3-1-1.3C8.9,13.8,8.6,14.4,8.6,15.1L8.6,15.1z"/>
			<path style="clip-path:url(#SVGID_00000044164039369107680340000016793599709525216444_);" d="M11.4,16.6v-0.2l0.3-0.3
				c0.8-0.7,1.1-1.1,1.1-1.6c0-0.3-0.1-0.6-0.6-0.6c-0.3,0-0.5,0.1-0.6,0.3l-0.1-0.3c0.2-0.2,0.5-0.3,0.9-0.3c0.7,0,0.9,0.4,0.9,0.9
				c0,0.6-0.4,1-1.1,1.6L12,16.3v0h1.4v0.3H11.4L11.4,16.6L11.4,16.6z"/>
			
				<path style="clip-path:url(#SVGID_00000044164039369107680340000016793599709525216444_);fill:none;stroke:#000000;stroke-width:0.1838;stroke-miterlimit:10;" d="
				M11.4,16.6v-0.2l0.3-0.3c0.8-0.7,1.1-1.1,1.1-1.6c0-0.3-0.1-0.6-0.6-0.6c-0.3,0-0.5,0.1-0.6,0.3l-0.1-0.3
				c0.2-0.2,0.5-0.3,0.9-0.3c0.7,0,0.9,0.4,0.9,0.9c0,0.6-0.4,1-1.1,1.6L12,16.3v0h1.4v0.3H11.4L11.4,16.6L11.4,16.6z"/>
		</g>
	</g>
</g>
</svg>
