<?xml version="1.0" encoding="utf-8"?>
<!-- Generator: Adobe Illustrator 26.0.0, SVG Export Plug-In . SVG Version: 6.00 Build 0)  -->
<svg version="1.1" id="Capa_1" xmlns="http://www.w3.org/2000/svg" xmlns:xlink="http://www.w3.org/1999/xlink" x="0px" y="0px"
	 viewBox="0 0 50 50" style="enable-background:new 0 0 50 50;" xml:space="preserve">
<style type="text/css">
	.st0{fill:none;stroke:#000000;stroke-width:0.5;stroke-miterlimit:10;}
	.st1{fill:none;stroke:#000000;stroke-miterlimit:10;}
	.st2{fill:#FFFFFF;stroke:#000000;stroke-width:0.25;stroke-miterlimit:10;}
</style>
<g>
	<line class="st0" x1="29.58" y1="22.36" x2="29.58" y2="30.14"/>
</g>
<path class="st1" d="M28.72,23.44"/>
<path class="st0" d="M30.34,22.37c-2.04,1.65-7.62-0.93-10.21-4.93c-1.75-2.7-2.82-7.11-1.01-8.64c1.92-1.62,6.61,0.43,9.14,3.3
	C31.12,15.35,32.28,20.8,30.34,22.37z"/>
<path class="st0" d="M29.5,22.5c-0.59-1.92-2.62-4.86-4.75-7.77c-2-2.74-4.17-4.58-5.75-5.73"/>
<circle class="st2" cx="21.8" cy="28.2" r="6.8"/>
<g>
	<path d="M20.17,30c-0.18,0.09-0.54,0.17-1,0.17c-1.07,0-1.87-0.64-1.87-1.83c0-1.13,0.8-1.9,1.98-1.9c0.47,0,0.77,0.1,0.9,0.16
		l-0.12,0.38c-0.19-0.09-0.45-0.15-0.76-0.15c-0.89,0-1.48,0.54-1.48,1.49c0,0.89,0.53,1.46,1.45,1.46c0.3,0,0.6-0.06,0.8-0.15
		L20.17,30z"/>
	<path d="M23.89,28.27c0,1.25-0.79,1.91-1.76,1.91c-1,0-1.7-0.74-1.7-1.84c0-1.15,0.75-1.9,1.76-1.9
		C23.23,26.44,23.89,27.2,23.89,28.27z M20.96,28.33c0,0.77,0.44,1.47,1.21,1.47c0.77,0,1.21-0.68,1.21-1.5
		c0-0.72-0.39-1.47-1.21-1.47C21.36,26.82,20.96,27.53,20.96,28.33z"/>
	<path d="M24.35,30.12v-0.29l0.39-0.36c0.93-0.85,1.35-1.3,1.36-1.83c0-0.35-0.18-0.68-0.72-0.68c-0.33,0-0.61,0.16-0.78,0.29
		l-0.16-0.33c0.25-0.21,0.61-0.36,1.03-0.36c0.79,0,1.12,0.52,1.12,1.02c0,0.64-0.49,1.17-1.26,1.88l-0.29,0.26v0.01h1.64v0.39
		H24.35z"/>
</g>

</svg>
