<?xml version="1.0" encoding="utf-8"?>
<!-- Generator: Adobe Illustrator 26.0.0, SVG Export Plug-In . SVG Version: 6.00 Build 0)  -->
<svg version="1.1" xmlns="http://www.w3.org/2000/svg" xmlns:xlink="http://www.w3.org/1999/xlink" x="0px" y="0px"
	 viewBox="0 0 683 768" style="enable-background:new 0 0 683 768;" xml:space="preserve">
<style type="text/css">
	.st0{fill:url(#SVGID_1_);stroke:#000000;stroke-miterlimit:10;}
	.st1{fill:url(#SVGID_00000046306835906319078590000002063812700428420284_);stroke:#000000;stroke-miterlimit:10;}
	.st2{fill:none;stroke:#000000;stroke-linecap:round;stroke-miterlimit:10;}
	.st3{stroke:#000000;stroke-miterlimit:10;}
	.st4{fill:#CCCCCC;stroke:#000000;stroke-linecap:round;stroke-miterlimit:10;}
	.st5{fill:none;stroke:#000000;stroke-miterlimit:10;}
	.st6{fill:#D2D3D3;stroke:#000000;stroke-miterlimit:10;}
	.st7{fill:url(#SVGID_00000036933518295306211410000007445007104826304394_);stroke:#000000;stroke-miterlimit:10;}
	.st8{fill:#FCFCFC;stroke:#000000;stroke-miterlimit:10;}
	.st9{fill:none;stroke:#9F9FA0;stroke-miterlimit:10;}
	.st10{fill:none;stroke:#000000;stroke-width:6;stroke-miterlimit:10;}
	.st11{fill:none;stroke:#000000;stroke-width:2;stroke-miterlimit:10;}
	.st12{fill:url(#SVGID_00000025442669989092473800000001569769144296480409_);stroke:#B3B3B3;stroke-miterlimit:10;}
	.st13{fill:none;stroke:#7C7C7C;stroke-width:2;stroke-linecap:round;stroke-miterlimit:10;}
	.st14{fill:url(#SVGID_00000034049518045620754590000009035007763673897915_);stroke:#000000;stroke-miterlimit:10;}
	.st15{fill:none;stroke:#989999;stroke-miterlimit:10;}
	.st16{fill:none;stroke:#7C7C7C;stroke-width:2;stroke-miterlimit:10;}
	.st17{fill:#D2D3D3;stroke:#707070;stroke-miterlimit:10;}
	.st18{fill:url(#SVGID_00000086653459827605850030000016110480015138967995_);stroke:#000000;stroke-miterlimit:10;}
	.st19{fill:#D2D3D4;stroke:#000000;stroke-miterlimit:10;}
	.st20{font-family:'MyriadPro-Regular';}
	.st21{font-size:25.8387px;}
	.st22{fill:url(#SVGID_00000034770030652077563840000002048233129918469005_);stroke:#000000;stroke-miterlimit:10;}
	.st23{fill:#D2D3D3;stroke:#000000;stroke-width:2;stroke-miterlimit:10;}
	.st24{fill:none;stroke:#000000;stroke-width:5;stroke-miterlimit:10;}
	.st25{fill:url(#SVGID_00000078012062777971610610000004299460322136157347_);stroke:#000000;stroke-miterlimit:10;}
	.st26{fill:#D2D3D3;stroke:#000000;stroke-width:3;stroke-miterlimit:10;}
	.st27{fill:none;stroke:#000000;stroke-width:5;stroke-linecap:round;stroke-miterlimit:10;}
	.st28{fill:none;stroke:#555656;stroke-width:4;stroke-linecap:round;stroke-miterlimit:10;}
</style>
<g id="Fondo">
	<linearGradient id="SVGID_1_" gradientUnits="userSpaceOnUse" x1="0" y1="384" x2="683" y2="384">
		<stop  offset="2.077838e-07" style="stop-color:#C79B7E"/>
		<stop  offset="1" style="stop-color:#D2D3D4"/>
	</linearGradient>
	<rect class="st0" width="683" height="768"/>
</g>
<g id="comercioInternacional">
	
		<radialGradient id="SVGID_00000153669206308317403920000006834156453937587621_" cx="457.8318" cy="144.1799" r="91.8329" gradientUnits="userSpaceOnUse">
		<stop  offset="0" style="stop-color:#D2D3D4"/>
		<stop  offset="0.9743" style="stop-color:#0C4025"/>
	</radialGradient>
	
		<polygon style="fill:url(#SVGID_00000153669206308317403920000006834156453937587621_);stroke:#000000;stroke-miterlimit:10;" points="
		527.4,209.05 436.43,236.87 366.86,171.99 388.26,79.3 479.23,51.49 548.8,116.37 	"/>
	<g>
		<g>
			<line class="st2" x1="418.93" y1="142.17" x2="412.13" y2="142.17"/>
			<circle class="st3" cx="478.45" cy="189.22" r="5.27"/>
			<circle class="st3" cx="441" cy="189.05" r="5.27"/>
			<path class="st4" d="M418.88,142.17l14.47,39.15l50.98-1.19l7.15-27.23l-68.3,0.43"/>
			<line class="st5" x1="433.52" y1="185.92" x2="483.73" y2="185.06"/>
			<line class="st5" x1="425.94" y1="161.28" x2="489.12" y2="160.88"/>
		</g>
		<line class="st5" x1="428.54" y1="167.04" x2="487.97" y2="166.67"/>
	</g>
	<g>
		<circle class="st6" cx="457.57" cy="118.12" r="26.47"/>
		<line class="st5" x1="431.12" y1="118.92" x2="484.02" y2="118.92"/>
		<line class="st5" x1="431.12" y1="118.92" x2="484.02" y2="118.92"/>
		<line class="st5" x1="433.61" y1="106.86" x2="481.53" y2="106.86"/>
		<line class="st5" x1="433.65" y1="129.9" x2="481.28" y2="129.9"/>
		<line class="st5" x1="457.57" y1="144.59" x2="457.57" y2="91.65"/>
		<path class="st5" d="M457.57,144.59c-10.78-7.13-16.53-19.44-14.66-31.4c2.1-13.46,12.93-20.46,14.66-21.54"/>
		<path class="st5" d="M457.57,144.59c0.78-0.47,14.91-9.25,15.05-26.21c0.15-17.29-14.39-26.34-15.05-26.73"/>
	</g>
</g>
<g id="EvaluacionDeProgramas">
	
		<radialGradient id="SVGID_00000082343019955566010120000007356934550722217400_" cx="456.6754" cy="643.8742" r="91.8329" gradientUnits="userSpaceOnUse">
		<stop  offset="0" style="stop-color:#D2D3D4"/>
		<stop  offset="0.9743" style="stop-color:#0C4025"/>
	</radialGradient>
	
		<polygon style="fill:url(#SVGID_00000082343019955566010120000007356934550722217400_);stroke:#000000;stroke-miterlimit:10;" points="
		526.25,708.75 435.28,736.56 365.71,671.69 387.1,579 478.07,551.19 547.64,616.06 	"/>
	<rect x="402.74" y="630.79" class="st8" width="44.17" height="67.66"/>
	<rect x="422.78" y="608.06" class="st8" width="44.17" height="67.66"/>
	<rect x="444.74" y="581.51" class="st8" width="44.17" height="67.66"/>
	<line class="st9" x1="448.78" y1="586.96" x2="479.08" y2="586.87"/>
	<line class="st9" x1="448.79" y1="590.41" x2="479.09" y2="590.33"/>
	<line class="st9" x1="448.7" y1="594.09" x2="479" y2="594"/>
	<line class="st9" x1="448.82" y1="599.5" x2="477.29" y2="599.42"/>
	<line class="st9" x1="448.44" y1="603.54" x2="468.53" y2="603.48"/>
	<line class="st9" x1="429.63" y1="614.77" x2="444.23" y2="614.73"/>
	<line class="st9" x1="429.46" y1="620.48" x2="444.24" y2="620.41"/>
	<circle class="st8" cx="473.04" cy="597.96" r="11.19"/>
	<line class="st10" x1="492.61" y1="602.95" x2="523.76" y2="611"/>
	<line class="st11" x1="484.23" y1="600.79" x2="492.94" y2="603.04"/>
	<circle class="st3" cx="523.76" cy="611" r="2.55"/>
</g>
<g id="AsesoramientoYAsistencia">
	
		<radialGradient id="SVGID_00000125568299664551754850000000646853795754230665_" cx="545.1305" cy="449.4371" r="91.8849" gradientUnits="userSpaceOnUse">
		<stop  offset="0" style="stop-color:#D2D3D4"/>
		<stop  offset="0.9743" style="stop-color:#0C4025"/>
	</radialGradient>
	
		<polygon style="fill:url(#SVGID_00000125568299664551754850000000646853795754230665_);stroke:#B3B3B3;stroke-miterlimit:10;" points="
		637.02,424.82 612.39,516.7 520.51,541.32 453.25,474.06 477.87,382.17 569.75,357.55 	"/>
	<rect x="497.23" y="406.62" class="st6" width="97.7" height="53.62"/>
	<line class="st13" x1="523.2" y1="452.48" x2="544.21" y2="452.18"/>
	<line class="st13" x1="522.26" y1="439.25" x2="589.32" y2="438.32"/>
	<line class="st13" x1="522.09" y1="427.16" x2="589.15" y2="426.23"/>
	<line class="st13" x1="520.74" y1="415.96" x2="587.8" y2="415.03"/>
	<g id="Personas">
		<g id="Person_00000034803370368733833660000008831872930098451618_">
			<path class="st6" d="M592.1,482.05h-11.35c-6.6,0-12-5.4-12-12v-22.08c0-6.6,5.4-12,12-12h11.35c6.6,0,12,5.4,12,12v22.08
				C604.1,476.65,598.7,482.05,592.1,482.05z"/>
			<circle class="st6" cx="586.43" cy="426.65" r="15.07"/>
		</g>
		<g id="Person_00000034087750777546385540000003870674923090249381_">
			<path class="st6" d="M507.09,482.05h-11.35c-6.6,0-12-5.4-12-12v-22.08c0-6.6,5.4-12,12-12h11.35c6.6,0,12,5.4,12,12v22.08
				C519.09,476.65,513.69,482.05,507.09,482.05z"/>
			<circle class="st6" cx="501.41" cy="426.65" r="15.07"/>
		</g>
	</g>
</g>
<g id="FormacionYDig">
	
		<radialGradient id="SVGID_00000162341979655569626070000015373405524775025281_" cx="349.9649" cy="339.2441" r="91.8329" gradientUnits="userSpaceOnUse">
		<stop  offset="0" style="stop-color:#D2D3D4"/>
		<stop  offset="0.9743" style="stop-color:#0C4025"/>
	</radialGradient>
	
		<polygon style="fill:url(#SVGID_00000162341979655569626070000015373405524775025281_);stroke:#000000;stroke-miterlimit:10;" points="
		371.36,246.56 280.39,274.37 259,367.06 328.57,431.93 419.54,404.12 440.93,311.43 	"/>
	<g id="cartel">
		<path class="st6" d="M301.38,284.32h107.2c0.04,0,0.07,0.03,0.07,0.07v59.09c0,0.04-0.03,0.07-0.07,0.07h-107.2
			c-0.04,0-0.07-0.03-0.07-0.07v-59.09C301.31,284.35,301.34,284.32,301.38,284.32z"/>
		<path class="st15" d="M359.81,331.16l7.7-10.4c0.03-0.04,0.08-0.04,0.11-0.01l10.44,10.36c0.03,0.03,0.08,0.03,0.1,0l15.26-16.71
			c0.04-0.05,0.26-0.11,0.26-0.05v4.47"/>
		<line class="st15" x1="389.21" y1="314.35" x2="393.68" y2="314.35"/>
		<path class="st16" d="M350.48,332.82"/>
		<path class="st16" d="M328.58,333.12"/>
		<line class="st13" x1="328.24" y1="307.76" x2="395.3" y2="306.83"/>
		<line class="st13" x1="328.41" y1="297.85" x2="395.47" y2="296.92"/>
		<path class="st17" d="M345.82,321.58h1.16c0.35,0,0.63,0.28,0.63,0.63v11.74c0,0.35-0.28,0.63-0.63,0.63h-1.16
			c-0.35,0-0.63-0.28-0.63-0.63V322.2C345.2,321.86,345.48,321.58,345.82,321.58z"/>
		<path class="st17" d="M341.45,317.28h1.16c0.35,0,0.63,0.28,0.63,0.63v16.04c0,0.35-0.28,0.63-0.63,0.63h-1.16
			c-0.35,0-0.63-0.28-0.63-0.63v-16.04C340.82,317.56,341.1,317.28,341.45,317.28z"/>
		<path class="st17" d="M336.82,321.37h1.16c0.35,0,0.63,0.28,0.63,0.63v11.74c0,0.35-0.28,0.63-0.63,0.63h-1.16
			c-0.35,0-0.63-0.28-0.63-0.63v-11.74C336.2,321.65,336.48,321.37,336.82,321.37z"/>
		<path class="st17" d="M331.86,314.19h1.3c0.35,0,0.63,0.28,0.63,0.63v18.93c0,0.35-0.28,0.63-0.63,0.63h-1.3
			c-0.35,0-0.63-0.28-0.63-0.63v-18.93C331.24,314.47,331.52,314.19,331.86,314.19z"/>
	</g>
	<g id="Person_00000034806039355131654500000012162977677560009880_">
		<path class="st6" d="M374.54,417.34v-22.08c0-6.6,5.4-12,12-12h11.35c6.6,0,12,5.4,12,12v11.8"/>
		<circle class="st6" cx="392.21" cy="373.94" r="15.07"/>
	</g>
	<g id="Person_00000052073295409503743290000014375099020836317864_">
		<path class="st6" d="M293.36,399.11v-5.5c0-6.6,5.4-12,12-12h11.35c6.6,0,12,5.4,12,12v22.08c0,4.53-2.55,8.5-6.28,10.54"/>
		<path class="st6" d="M305.36,427.68"/>
		<circle class="st6" cx="311.04" cy="372.28" r="15.07"/>
	</g>
	<g id="Person_00000170966739539910525470000013185978587597633162_">
		<path class="st6" d="M341.19,428.08c-3.94-1.97-6.65-6.05-6.65-10.73v-22.08c0-6.6,5.4-12,12-12h11.35c6.6,0,12,5.4,12,12v22.08
			c0,0.68-0.06,1.36-0.17,2.01"/>
		<circle class="st6" cx="352.21" cy="373.94" r="15.07"/>
	</g>
	<g id="Person">
		<path class="st6" d="M301.34,353.38h-11.35c-6.6,0-12-5.4-12-12v-22.08c0-6.6,5.4-12,12-12h11.35c6.6,0,12,5.4,12,12v22.08
			C313.34,347.98,307.94,353.38,301.34,353.38z"/>
		<circle class="st6" cx="295.66" cy="297.98" r="15.07"/>
	</g>
	<path class="st5" d="M327.02,299.55"/>
	<path class="st5" d="M310.73,324.27"/>
</g>
<g id="elips">
	
		<radialGradient id="SVGID_00000034070167285814950420000015783460303768317113_" cx="227.3915" cy="122.9371" r="90.5285" gradientUnits="userSpaceOnUse">
		<stop  offset="0" style="stop-color:#D2D3D4"/>
		<stop  offset="0.9743" style="stop-color:#0C4025"/>
	</radialGradient>
	
		<polygon style="fill:url(#SVGID_00000034070167285814950420000015783460303768317113_);stroke:#000000;stroke-miterlimit:10;" points="
		281.63,201.08 186.84,208.99 132.59,130.84 173.15,44.79 267.95,36.89 322.19,115.04 	"/>
	<g>
		<circle class="st6" cx="230.28" cy="119.04" r="42.15"/>
		<line class="st5" x1="188.15" y1="120.32" x2="272.4" y2="120.32"/>
		<line class="st5" x1="188.15" y1="120.32" x2="272.4" y2="120.32"/>
		<line class="st5" x1="192.13" y1="101.11" x2="268.42" y2="101.11"/>
		<line class="st5" x1="192.18" y1="137.79" x2="268.03" y2="137.79"/>
		<line class="st5" x1="230.28" y1="161.19" x2="230.28" y2="76.89"/>
		<path class="st5" d="M230.28,161.19c-17.16-11.35-26.32-30.96-23.35-50c3.35-21.44,20.58-32.57,23.35-34.3"/>
		<path class="st5" d="M230.28,161.19c1.24-0.74,23.74-14.73,23.97-41.74c0.23-27.54-22.92-41.94-23.97-42.56"/>
	</g>
	<circle class="st19" cx="250.09" cy="155.3" r="15.41"/>
	<path class="st2" d="M252.52,146.02"/>
	<path class="st2" d="M252.43,142.54"/>
	<text transform="matrix(1 0 0 1 243.4617 163.3914)" class="st20 st21">$</text>
</g>
<g id="Planificacion_estrategica_00000085231465044292599550000001304130726139581077_">
	
		<radialGradient id="SVGID_00000125580815239805710250000007780993052515895180_" cx="213.6411" cy="619.4371" r="91.8329" gradientUnits="userSpaceOnUse">
		<stop  offset="0" style="stop-color:#D2D3D4"/>
		<stop  offset="0.9743" style="stop-color:#0C4025"/>
	</radialGradient>
	
		<polygon style="fill:url(#SVGID_00000125580815239805710250000007780993052515895180_);stroke:#000000;stroke-miterlimit:10;" points="
		283.21,684.31 192.24,712.13 122.67,647.25 144.07,554.56 235.04,526.75 304.61,591.62 	"/>
	<rect x="188.98" y="596.46" class="st23" width="43.91" height="43.91"/>
	<rect x="188.98" y="544.87" class="st23" width="43.91" height="43.91"/>
	<rect x="188.98" y="648.04" class="st23" width="43.91" height="43.91"/>
	<g>
		<path class="st3" d="M232.89,552.23v5.43c5.46,0,9.89,4.43,9.89,9.89c0,5.46-4.43,9.89-9.89,9.89v5.43
			c8.46,0,15.32-6.86,15.32-15.32C248.21,559.09,241.35,552.23,232.89,552.23z"/>
		<path class="st3" d="M237.7,554.42h-3.05c-0.55,0-0.99-0.44-0.99-0.99v-8.1c0-0.55,0.44-0.99,0.99-0.99h3.05
			c0.55,0,0.99,0.44,0.99,0.99v8.1C238.7,553.97,238.25,554.42,237.7,554.42z"/>
		<path class="st3" d="M237.77,589.27h-3.05c-0.55,0-0.99-0.44-0.99-0.99v-8.1c0-0.55,0.44-0.99,0.99-0.99h3.05
			c0.55,0,0.99,0.44,0.99,0.99v8.1C238.76,588.82,238.32,589.27,237.77,589.27z"/>
		<path class="st3" d="M251.54,583.23l-2.01,2.29c-0.36,0.41-0.99,0.45-1.4,0.09l-6.09-5.34c-0.41-0.36-0.45-0.99-0.09-1.4
			l2.01-2.29c0.36-0.41,0.99-0.45,1.4-0.09l6.09,5.34C251.86,582.2,251.9,582.82,251.54,583.23z"/>
		<path class="st3" d="M257.47,565.49v3.05c0,0.55-0.44,0.99-0.99,0.99h-8.1c-0.55,0-0.99-0.44-0.99-0.99v-3.05
			c0-0.55,0.44-0.99,0.99-0.99h8.1C257.02,564.5,257.47,564.94,257.47,565.49z"/>
		<path class="st3" d="M244.48,559.22l-1.77-2.48c-0.32-0.45-0.22-1.06,0.23-1.38l6.59-4.71c0.45-0.32,1.06-0.22,1.38,0.23
			l1.77,2.48c0.32,0.45,0.22,1.06-0.23,1.38l-6.59,4.71C245.42,559.77,244.8,559.67,244.48,559.22z"/>
	</g>
	<g>
		<path class="st3" d="M189.18,684.48v-5.43c-5.46,0-9.89-4.43-9.89-9.89c0-5.46,4.43-9.89,9.89-9.89v-5.43
			c-8.46,0-15.32,6.86-15.32,15.32C173.86,677.62,180.72,684.48,189.18,684.48z"/>
		<path class="st3" d="M184.37,682.3h3.05c0.55,0,0.99,0.44,0.99,0.99v8.1c0,0.55-0.44,0.99-0.99,0.99h-3.05
			c-0.55,0-0.99-0.44-0.99-0.99v-8.1C183.38,682.74,183.82,682.3,184.37,682.3z"/>
		<path class="st3" d="M184.31,647.45h3.05c0.55,0,0.99,0.44,0.99,0.99v8.1c0,0.55-0.44,0.99-0.99,0.99h-3.05
			c-0.55,0-0.99-0.44-0.99-0.99v-8.1C183.32,647.89,183.76,647.45,184.31,647.45z"/>
		<path class="st3" d="M170.53,653.48l2.01-2.29c0.36-0.41,0.99-0.45,1.4-0.09l6.09,5.34c0.41,0.36,0.45,0.99,0.09,1.4l-2.01,2.29
			c-0.36,0.41-0.99,0.45-1.4,0.09l-6.09-5.34C170.21,654.52,170.17,653.89,170.53,653.48z"/>
		<path class="st3" d="M164.61,671.23v-3.05c0-0.55,0.44-0.99,0.99-0.99h8.1c0.55,0,0.99,0.44,0.99,0.99v3.05
			c0,0.55-0.44,0.99-0.99,0.99h-8.1C165.05,672.22,164.61,671.77,164.61,671.23z"/>
		<path class="st3" d="M177.59,677.49l1.77,2.48c0.32,0.45,0.22,1.06-0.23,1.38l-6.59,4.71c-0.45,0.32-1.06,0.22-1.38-0.23
			l-1.77-2.48c-0.32-0.45-0.22-1.06,0.23-1.38l6.59-4.71C176.65,676.94,177.27,677.05,177.59,677.49z"/>
	</g>
	<path class="st24" d="M188.34,564.5h-16.15c-0.85,0-1.54,1.07-1.57,2.42l-0.97,49.94c-0.03,1.41,0.68,2.57,1.57,2.57h17.13"/>
	<path class="st24" d="M188.98,618.42"/>
	<path class="st24" d="M157.78,618.42"/>
	<path class="st24" d="M171.79,565.26"/>
	<path class="st24" d="M184.55,565.26"/>
	<path class="st24" d="M233.07,673.36l16.72,0c0.88,0,1.6-1.07,1.63-2.42l1.01-49.94c0.03-1.41-0.71-2.57-1.62-2.57h-17.73"/>
</g>
<g id="DigitalizacionGobiernos">
	
		<radialGradient id="SVGID_00000126317398856281810930000014057772230631602078_" cx="113.1305" cy="374.8742" r="88.9825" gradientUnits="userSpaceOnUse">
		<stop  offset="0" style="stop-color:#D2D3D4"/>
		<stop  offset="0.9743" style="stop-color:#0C4025"/>
	</radialGradient>
	
		<polygon style="fill:url(#SVGID_00000126317398856281810930000014057772230631602078_);stroke:#000000;stroke-miterlimit:10;" points="
		208.26,374.87 160.69,457.26 65.57,457.26 18,374.87 65.57,292.49 160.69,292.49 	"/>
	<g>
		<path class="st3" d="M145.8,324.58v5.43c5.46,0,9.89,4.43,9.89,9.89s-4.43,9.89-9.89,9.89v5.43c8.46,0,15.32-6.86,15.32-15.32
			S154.26,324.58,145.8,324.58z"/>
		<path class="st3" d="M150.61,326.77h-3.05c-0.55,0-0.99-0.44-0.99-0.99v-8.1c0-0.55,0.44-0.99,0.99-0.99h3.05
			c0.55,0,0.99,0.44,0.99,0.99v8.1C151.6,326.32,151.16,326.77,150.61,326.77z"/>
		<path class="st3" d="M150.67,361.62h-3.05c-0.55,0-0.99-0.44-0.99-0.99v-8.1c0-0.55,0.44-0.99,0.99-0.99h3.05
			c0.55,0,0.99,0.44,0.99,0.99v8.1C151.66,361.17,151.22,361.62,150.67,361.62z"/>
		<path class="st3" d="M164.44,355.58l-2.01,2.29c-0.36,0.41-0.99,0.45-1.4,0.09l-6.09-5.34c-0.41-0.36-0.45-0.99-0.09-1.4
			l2.01-2.29c0.36-0.41,0.99-0.45,1.4-0.09l6.09,5.34C164.76,354.55,164.8,355.17,164.44,355.58z"/>
		<path class="st3" d="M170.37,337.84v3.05c0,0.55-0.44,0.99-0.99,0.99h-8.1c-0.55,0-0.99-0.44-0.99-0.99v-3.05
			c0-0.55,0.44-0.99,0.99-0.99h8.1C169.93,336.85,170.37,337.29,170.37,337.84z"/>
		<path class="st3" d="M157.39,331.57l-1.77-2.48c-0.32-0.45-0.22-1.06,0.23-1.38l6.59-4.71c0.45-0.32,1.06-0.22,1.38,0.23
			l1.77,2.48c0.32,0.45,0.22,1.06-0.23,1.38l-6.59,4.71C158.33,332.12,157.71,332.02,157.39,331.57z"/>
	</g>
	<g>
		<g>
			<path class="st3" d="M145.67,389.12v5.43c5.46,0,9.89,4.43,9.89,9.89s-4.43,9.89-9.89,9.89v5.43c8.46,0,15.32-6.86,15.32-15.32
				C160.99,395.98,154.13,389.12,145.67,389.12z"/>
			<path class="st3" d="M150.48,391.3h-3.05c-0.55,0-0.99-0.44-0.99-0.99v-8.1c0-0.55,0.44-0.99,0.99-0.99h3.05
				c0.55,0,0.99,0.44,0.99,0.99v8.1C151.47,390.85,151.03,391.3,150.48,391.3z"/>
			<path class="st3" d="M150.54,426.15h-3.05c-0.55,0-0.99-0.44-0.99-0.99v-8.1c0-0.55,0.44-0.99,0.99-0.99h3.05
				c0.55,0,0.99,0.44,0.99,0.99v8.1C151.54,425.71,151.09,426.15,150.54,426.15z"/>
			<path class="st3" d="M164.32,420.12l-2.01,2.29c-0.36,0.41-0.99,0.45-1.4,0.09l-6.09-5.34c-0.41-0.36-0.45-0.99-0.09-1.4
				l2.01-2.29c0.36-0.41,0.99-0.45,1.4-0.09l6.09,5.34C164.64,419.08,164.68,419.71,164.32,420.12z"/>
			<path class="st3" d="M170.24,402.37v3.05c0,0.55-0.44,0.99-0.99,0.99h-8.1c-0.55,0-0.99-0.44-0.99-0.99v-3.05
				c0-0.55,0.44-0.99,0.99-0.99h8.1C169.8,401.38,170.24,401.82,170.24,402.37z"/>
			<path class="st3" d="M157.26,396.11l-1.77-2.48c-0.32-0.45-0.22-1.06,0.23-1.38l6.59-4.71c0.45-0.32,1.06-0.22,1.38,0.23
				l1.77,2.48c0.32,0.45,0.22,1.06-0.23,1.38l-6.59,4.71C158.2,396.66,157.58,396.55,157.26,396.11z"/>
		</g>
		<path class="st26" d="M65.91,428.62h72.51c3.48,0,6.3-2.82,6.3-6.3V317.13c0-3.48-2.82-6.3-6.3-6.3H65.91
			c-3.48,0-6.3,2.82-6.3,6.3v105.19C59.62,425.8,62.44,428.62,65.91,428.62z"/>
		<rect x="66.68" y="320.61" class="st23" width="70.98" height="98.23"/>
	</g>
	<path class="st27" d="M91.19,332.65c1.58-1.4-2.75,2.45,0.35-0.31c0,0-0.48,0.42-2.59,2.3c-1.9,1.69-4.79,4.26-9.36,8.31
		c-0.23,0.2-0.57,0.2-0.77-0.01c-1.07-1.11-3.9-4.07-4.27-4.46c0,0-0.1-0.1-0.1-0.1"/>
	<path class="st27" d="M90.6,367.12c1.58-1.4-2.75,2.45,0.35-0.31c0,0-0.48,0.42-2.59,2.3c-1.9,1.69-4.79,4.26-9.36,8.31
		c-0.23,0.2-0.57,0.2-0.77-0.01c-1.07-1.11-3.9-4.07-4.27-4.46c0,0-0.1-0.1-0.1-0.1"/>
	<path class="st27" d="M90.43,400.14c1.58-1.4-2.75,2.45,0.35-0.31c0,0-0.48,0.42-2.59,2.3c-1.9,1.69-4.79,4.26-9.36,8.31
		c-0.23,0.2-0.57,0.2-0.77-0.01c-1.07-1.11-3.9-4.07-4.27-4.46c0,0-0.1-0.1-0.1-0.1"/>
	<g>
		<line class="st28" x1="97.81" y1="408.88" x2="117.6" y2="408.77"/>
		<line class="st28" x1="97.94" y1="402.32" x2="131.04" y2="402.14"/>
		<line class="st28" x1="97.81" y1="371.95" x2="117.6" y2="371.84"/>
		<line class="st28" x1="97.94" y1="365.39" x2="131.04" y2="365.21"/>
		<line class="st28" x1="98.9" y1="340.16" x2="118.68" y2="340.05"/>
		<line class="st28" x1="99.03" y1="333.6" x2="132.13" y2="333.42"/>
	</g>
</g>
</svg>
