<?xml version="1.0" encoding="utf-8"?>
<!-- Generator: Adobe Illustrator 26.0.0, SVG Export Plug-In . SVG Version: 6.00 Build 0)  -->
<svg version="1.1" id="Capa_1" xmlns="http://www.w3.org/2000/svg" xmlns:xlink="http://www.w3.org/1999/xlink" x="0px" y="0px"
	 viewBox="0 0 23 23" style="enable-background:new 0 0 23 23;" xml:space="preserve">
<style type="text/css">
	.st0{fill:none;stroke:#000000;stroke-linecap:round;stroke-linejoin:round;stroke-miterlimit:10;}
	.st1{stroke:#000000;stroke-linecap:round;stroke-linejoin:round;stroke-miterlimit:10;}
</style>
<circle class="st0" cx="11.5" cy="7.5" r="5"/>
<circle class="st0" cx="11.5" cy="7.5" r="4"/>
<line class="st0" x1="7.5" y1="10.5" x2="11.5" y2="19.5"/>
<line class="st0" x1="11.5" y1="19.5" x2="15.5" y2="10.5"/>
<path class="st1" d="M14.5,12.5c0,0-1.34,0-3,0s-3,0-3,0s1.34,0,3,0S14.5,12.5,14.5,12.5z"/>
<polygon class="st1" points="10.81,14.1 10.91,13.94 11.01,13.78 11.1,13.95 11.19,14.11 11,14.11 "/>
<polygon class="st1" points="13.02,15.51 12.35,14.39 11.69,13.27 12.99,13.25 14.29,13.23 13.66,14.37 "/>
<polygon class="st1" points="11.93,18.46 10.49,15.84 9.04,13.21 12.03,13.27 13.5,13.5 12.5,15.5 "/>

</svg>
