<?xml version="1.0" encoding="utf-8"?>
<!-- Generator: Adobe Illustrator 26.0.0, SVG Export Plug-In . SVG Version: 6.00 Build 0)  -->
<svg version="1.1" id="Capa_1" xmlns="http://www.w3.org/2000/svg" xmlns:xlink="http://www.w3.org/1999/xlink" x="0px" y="0px"
	 viewBox="0 0 1920 1080" style="enable-background:new 0 0 1920 1080;" xml:space="preserve">
<style type="text/css">
	.st0{fill:none;stroke:#000000;stroke-miterlimit:10;}
	.st1{fill:#FDE482;stroke:#000000;stroke-miterlimit:10;}
	.st2{fill:#D2D3D5;}
	.st3{fill:url(#SVGID_1_);}
</style>
<path class="st0" d="M904.5,960.5"/>
<path class="st1" d="M248.5,649.5"/>
<polygon class="st2" points="1919.5,885.5 1919.5,805.5 1919.5,745.5 1919.5,694.5 1584.5,694.5 1584.5,745.5 1488.5,745.5 
	1488.5,824.5 1406.5,824.5 1406.5,885.5 1320.5,885.5 1320.5,927.5 1247.5,927.5 1247.5,964.5 1086.5,964.5 1086.5,986.5 
	798.5,986.5 798.5,951.5 680.5,951.5 680.5,927.5 617.5,927.5 617.5,885.5 563.5,885.5 563.5,856.5 472.5,856.5 472.5,792.5 
	386.5,792.5 386.5,726.5 -0.5,726.5 -0.5,1008.5 -0.5,1044.5 -0.5,1080.5 1920.5,1080.5 1920.5,1024.5 1921.5,1024.5 1921.5,1011.5 
	1922,1012 1920,977 1922,971 1920,886 "/>
<linearGradient id="SVGID_1_" gradientUnits="userSpaceOnUse" x1="959.2569" y1="1008.5" x2="959.2569" y2="-0.5">
	<stop  offset="0" style="stop-color:#FFFFFF"/>
	<stop  offset="0" style="stop-color:#FDE482"/>
	<stop  offset="1" style="stop-color:#06602B"/>
</linearGradient>
<path class="st3" d="M0,122l-2,399l2,205h177.6h95.77c17.44,0,34.21,6.73,46.82,18.77C489.71,906.6,712.92,1008.5,957.5,1008.5
	c248.25,0,474.48-104.98,644.9-271.05c14.02-13.66,32.96-21.09,52.52-20.43L1920,726V59V48c1.21-19.86,1-26.97,1-47l0,0
	c-74.95-0.27-138.42,55.73-146.89,130.2c-50.77,446.52-359.71,824.3-816.61,824.3c-454.24,0-749.9-374.2-801.07-817.47
	C147.33,59.17,80.88-0.5,1.5-0.5l-4,0"/>
<g>
</g>
<g>
</g>
<g>
</g>
<g>
</g>
<g>
</g>
<g>
</g>
<g>
</g>
<g>
</g>
<g>
</g>
<g>
</g>
<g>
</g>
<g>
</g>
<g>
</g>
<g>
</g>
<g>
</g>
</svg>
