<?xml version="1.0" encoding="iso-8859-1"?>
<!-- Uploaded to: SVG Repo, www.svgrepo.com, Generator: SVG Repo Mixer Tools -->
<!DOCTYPE svg PUBLIC "-//W3C//DTD SVG 1.1//EN" "http://www.w3.org/Graphics/SVG/1.1/DTD/svg11.dtd">
<svg class="svgServices" fill="#000000" height="100" width="100" version="1.1" id="Capa_1" xmlns="http://www.w3.org/2000/svg" xmlns:xlink="http://www.w3.org/1999/xlink" 
	 viewBox="0 0 486.974 486.974" xml:space="preserve">
<path d="M417.226,66.042C374.638,23.454,318.014,0,257.785,0c-0.185,0-0.368,0.006-0.553,0.006c-0.084,0-0.167-0.006-0.251-0.006
	c-0.366,0-0.73,0.014-1.096,0.022C143.883,0.959,49.103,84.509,34.311,195.388h-2.749c-15.359,0-27.855,12.496-27.855,27.855
	v235.876c0,15.359,12.496,27.855,27.855,27.855H244.16c15.359,0,27.854-12.496,27.854-27.855v-8.361
	c56.61-2.315,108.949-25.667,148.134-66.311c40.703-42.22,63.119-98.675,63.119-158.964
	C483.268,165.253,459.813,108.63,417.226,66.042z M425.892,344.522h-78.409c9.272-32.448,14.617-69.745,15.436-108.54h99.101
	C460.096,276.609,447.064,313.806,425.892,344.522z M178.558,183.78v11.607H97.164V183.78c0-22.44,18.256-40.697,40.696-40.697
	C160.301,143.083,178.558,161.339,178.558,183.78z M179.27,138.085c2.345-11.101,5.161-21.691,8.371-31.643h137.969
	c9.805,31.797,15.454,69.127,16.307,108.541h-71.152c-3.527-11.339-14.119-19.595-26.603-19.595h-44.603V183.78
	C199.558,165.682,191.724,149.38,179.27,138.085z M256.287,21.018c0.305-0.002,0.608-0.01,0.914-0.011
	c20.744,0.145,41.78,20.798,57.748,56.724c1.118,2.516,2.203,5.088,3.257,7.71H195.381
	C211.686,46.533,234.259,21.533,256.287,21.018z M272.015,426.458v-60.936h46.182c-0.302,0.752-0.601,1.508-0.908,2.251
	C304.844,397.906,288.73,418.623,272.015,426.458z M272.015,344.522v-108.54h69.897c-0.859,39.231-6.521,76.688-16.318,108.54
	H272.015z M362.918,214.982c-0.813-38.958-6.139-76.145-15.414-108.541h76.442c22.193,30.89,36.004,68.188,38.055,108.541H362.918z
	 M406.642,85.441h-65.948c-2.054-5.609-4.239-11.03-6.555-16.239c-7.506-16.888-16.098-30.899-25.497-41.799
	C346.697,37.179,380.497,57.667,406.642,85.441z M205.523,27.795c-12.609,14.449-23.82,34.048-32.814,57.646H108.85
	C134.775,57.935,168.169,37.689,205.523,27.795z M91.537,106.438c0.024,0.001,0.049,0.004,0.074,0.004h74.006
	c-1.909,6.414-3.665,13.057-5.258,19.908c-6.977-2.743-14.561-4.267-22.499-4.267c-34.02,0-61.696,27.677-61.696,61.697v11.608
	H55.508C60.368,162.395,73.061,132.148,91.537,106.438z M31.561,216.388h44.603v28.548c0,5.799,4.701,10.5,10.5,10.5
	c5.799,0,10.5-4.701,10.5-10.5v-28.549h81.394v28.548c0,5.799,4.701,10.5,10.5,10.5c5.799,0,10.5-4.701,10.5-10.5v-28.549h44.603
	c3.779,0,6.854,3.075,6.854,6.855v175.09H24.706v-175.09C24.706,219.462,27.781,216.388,31.561,216.388z M244.16,465.974H31.561
	c-3.78,0-6.855-3.075-6.855-6.855v-39.786h226.309v39.786C251.015,462.898,247.939,465.974,244.16,465.974z M307.297,425.013
	c11.069-12.379,21.03-28.954,29.401-49.224c1.38-3.34,2.703-6.77,3.981-10.267h68.547
	C382.549,394.875,347.361,415.952,307.297,425.013z"/>
</svg>