<?xml version="1.0" encoding="utf-8"?>
<!-- Generator: Adobe Illustrator 26.0.0, SVG Export Plug-In . SVG Version: 6.00 Build 0)  -->
<svg version="1.1" id="Capa_1" xmlns="http://www.w3.org/2000/svg" xmlns:xlink="http://www.w3.org/1999/xlink" x="0px" y="0px"
	 viewBox="0 0 800 800" style="enable-background:new 0 0 800 800;" xml:space="preserve">
<style type="text/css">
	.st0{fill:#114B29;stroke:#FFFFFF;stroke-width:7;stroke-miterlimit:10;}
	.st1{fill:none;stroke:#FFFFFF;stroke-width:2;stroke-miterlimit:10;}
	.st2{fill:#FFFFFF;stroke:#FFFFFF;stroke-width:2;stroke-miterlimit:10;}
	
		.st3{fill:url(#subrayado_00000041254228219938550130000016076860823351181441_);stroke:#F6E482;stroke-width:4;stroke-miterlimit:10;}
</style>
<g id="TrianguloExterior">
	<polygon class="st0" points="404.1,307.6 443.4,375.6 492.2,460.3 492,460.3 531.3,528.2 595.2,528.2 494.1,353.2 436,252.4 	"/>
	<polygon class="st0" points="472,460.3 394.5,460.3 315.9,460.3 276.7,528.2 393.1,528.2 511.2,528.2 	"/>
	<polygon class="st0" points="425.9,235 393.1,178.1 292,353.2 191,528.2 256.6,528.2 	"/>
</g>
<g id="mundoInterno">
	<circle class="st1" cx="394.3" cy="405" r="48.1"/>
	<line class="st1" x1="346.2" y1="405" x2="442.4" y2="405"/>
	<line class="st1" x1="351.6" y1="381.9" x2="436.5" y2="381.9"/>
	<line class="st1" x1="353.7" y1="430.8" x2="434.9" y2="430.8"/>
</g>
<g id="texto">
	<path class="st2" d="M203.2,598l-4.3,11.5h-5.5l14-36.6h6.4l14,36.6h-5.7l-4.4-11.5H203.2z M216.7,594.3l-4-10.5
		c-0.9-2.4-1.5-4.6-2.1-6.7h-0.1c-0.6,2.2-1.3,4.4-2.1,6.6l-4,10.6L216.7,594.3L216.7,594.3z"/>
	<path class="st2" d="M237,576.9h-12.5v-4h30.4v4h-12.6v32.6H237V576.9z"/>
	<path class="st2" d="M280.8,592.3h-16v13.2h17.8v4h-23.1v-36.6h22.2v4h-16.9v11.6h16V592.3z"/>
	<path class="st2" d="M289.5,609.5v-36.6h5.8l13.2,18.5c3,4.3,5.4,8.1,7.4,11.9l0.1,0c-0.5-4.9-0.6-9.3-0.6-15v-15.3h5v36.6H315
		l-13-18.6c-2.9-4.1-5.6-8.2-7.7-12.2l-0.2,0c0.3,4.6,0.4,9,0.4,15.1v15.6L289.5,609.5L289.5,609.5z"/>
	<path class="st2" d="M350.9,592.3h-16v13.2h17.8v4h-23.1v-36.6h22.2v4h-16.9v11.6h16L350.9,592.3L350.9,592.3z"/>
	<path class="st2" d="M366.2,598l-4.3,11.5h-5.5l14-36.6h6.4l14,36.6h-5.7l-4.4-11.5H366.2z M379.7,594.3l-4-10.5
		c-0.9-2.4-1.5-4.6-2.1-6.7h-0.1c-0.6,2.2-1.3,4.4-2.1,6.6l-4,10.6L379.7,594.3L379.7,594.3z"/>
	<path class="st2" d="M416.5,598l-4.3,11.5h-5.5l14-36.6h6.4l14,36.6h-5.7L431,598H416.5z M430,594.3l-4-10.5
		c-0.9-2.4-1.5-4.6-2.1-6.7h-0.1c-0.6,2.2-1.3,4.4-2.1,6.6l-4,10.6L430,594.3L430,594.3z"/>
	<path class="st2" d="M447.1,573.4c3.2-0.4,7.1-0.8,11.3-0.8c7.6,0,13,1.6,16.6,4.6c3.7,3,5.8,7.2,5.8,13.1c0,6-2.1,10.9-5.9,14.2
		c-3.8,3.4-10.2,5.3-18.2,5.3c-3.8,0-7-0.2-9.6-0.4L447.1,573.4L447.1,573.4z M452.5,605.7c1.3,0.2,3.3,0.3,5.4,0.3
		c11.3,0,17.5-5.6,17.5-15.5c0.1-8.6-5.4-14.1-16.6-14.1c-2.7,0-4.8,0.2-6.2,0.5L452.5,605.7L452.5,605.7z"/>
	<path class="st2" d="M496.8,609.5l-13.4-36.6h5.7l6.4,18c1.8,4.9,3.3,9.4,4.4,13.7h0.1c1.2-4.2,2.9-8.8,4.7-13.6l7-18.1h5.7
		l-14.7,36.6L496.8,609.5L496.8,609.5z"/>
	<path class="st2" d="M527.1,572.9v36.6h-5.3v-36.6H527.1z"/>
	<path class="st2" d="M565,608.3c-2,0.9-5.8,1.7-10.8,1.7c-11.6,0-20.3-6.5-20.3-18.5c0-11.5,8.7-19.2,21.5-19.2
		c5.1,0,8.3,1,9.8,1.6l-1.3,3.8c-2-0.9-4.9-1.5-8.3-1.5c-9.6,0-16,5.5-16,15.1c0,9,5.8,14.7,15.8,14.7c3.2,0,6.5-0.6,8.7-1.5
		L565,608.3z"/>
	<path class="st2" d="M593,592.3h-16v13.2h17.8v4h-23.1v-36.6h22.2v4H577v11.6h16V592.3z"/>
</g>
<radialGradient id="subrayado_00000183228427770040587600000015217015518747048330_" cx="387.2718" cy="-48.5867" r="142.9242" gradientTransform="matrix(1 0 0 -1.9375 7.0282 532.2252)" gradientUnits="userSpaceOnUse">
	<stop  offset="0" style="stop-color:#10612E"/>
	<stop  offset="0.495" style="stop-color:#F6E482"/>
	<stop  offset="1" style="stop-color:#10612E"/>
</radialGradient>
<path id="subrayado" style="fill:url(#subrayado_00000183228427770040587600000015217015518747048330_);stroke:#F6E482;stroke-width:4;stroke-miterlimit:10;" d="
	M594.4,629.2H194.2c-1.1,0-2-0.9-2-2v-1.6c0-1.1,0.9-2,2-2h400.2c1.1,0,2,0.9,2,2v1.6C596.4,628.3,595.5,629.2,594.4,629.2z"/>
<path class="st1" d="M394.3,453.1c3.8-4.5,17.6-21.9,17.6-48.1c0-5.9-0.7-28.1-17.6-48.1"/>
<path class="st1" d="M394.3,453.1c-3-2.9-20.5-20.2-20.5-48.1c0-4.2,0.4-28.8,20.5-48.1"/>
<path d="M659.8,456.1"/>
</svg>
